<mxfile host="app.diagrams.net" modified="2023-06-29T10:28:06.622Z" agent="Mozilla/5.0 (Windows NT 10.0; Win64; x64) AppleWebKit/537.36 (KHTML, like Gecko) Chrome/114.0.0.0 Safari/537.36 Edg/114.0.1823.58" version="21.5.2" etag="8X7IoowJmW3K45cpzUD5" type="github">
  <diagram name="Страница 1" id="6Xq37Kx-IkY4U-mCiqqc">
    <mxGraphModel>
      <root>
        <mxCell id="0" />
        <mxCell id="1" parent="0" />
      </root>
    </mxGraphModel>
  </diagram>
</mxfile>
